<?xml version="1.0" encoding="UTF-8" standalone="no"?>
<!-- Created with Inkscape (http://www.inkscape.org/) -->

<svg
   width="512"
   height="512"
   viewBox="0 0 512 512"
   version="1.1"
   id="svg1"
   sodipodi:docname="ikona.svg"
   inkscape:version="1.4 (e7c3feb100, 2024-10-09)"
   inkscape:export-filename="logo.png"
   inkscape:export-xdpi="96"
   inkscape:export-ydpi="96"
   xmlns:inkscape="http://www.inkscape.org/namespaces/inkscape"
   xmlns:sodipodi="http://sodipodi.sourceforge.net/DTD/sodipodi-0.dtd"
   xmlns:xlink="http://www.w3.org/1999/xlink"
   xmlns="http://www.w3.org/2000/svg"
   xmlns:svg="http://www.w3.org/2000/svg">
  <sodipodi:namedview
     id="namedview1"
     pagecolor="#505050"
     bordercolor="#ffffff"
     borderopacity="1"
     inkscape:showpageshadow="0"
     inkscape:pageopacity="0"
     inkscape:pagecheckerboard="1"
     inkscape:deskcolor="#505050"
     inkscape:document-units="px"
     showguides="true"
     inkscape:zoom="0.80542522"
     inkscape:cx="182.51229"
     inkscape:cy="222.24286"
     inkscape:window-width="1920"
     inkscape:window-height="988"
     inkscape:window-x="0"
     inkscape:window-y="0"
     inkscape:window-maximized="1"
     inkscape:current-layer="layer2" />
  <defs
     id="defs1">
    <linearGradient
       id="linearGradient7"
       inkscape:collect="always">
      <stop
         style="stop-color:#641800;stop-opacity:1;"
         offset="0"
         id="stop7" />
      <stop
         style="stop-color:#421f1f;stop-opacity:1;"
         offset="1"
         id="stop8" />
    </linearGradient>
    <linearGradient
       inkscape:collect="always"
       xlink:href="#linearGradient7"
       id="linearGradient8"
       x1="89.357422"
       y1="268.24901"
       x2="306.10742"
       y2="268.24901"
       gradientUnits="userSpaceOnUse"
       gradientTransform="matrix(1.2852891,0,0,1.2852891,-74.785852,-77.057134)" />
  </defs>
  <g
     inkscape:groupmode="layer"
     id="layer5"
     inkscape:label="Ikona"
     transform="matrix(0.92347088,0,0,0.92347088,13.920744,6.5686726)">
    <g
       inkscape:groupmode="layer"
       id="layer2"
       inkscape:label="Cień"
       transform="translate(0.04952,0.56443)"
       style="fill:#52463d;fill-opacity:1">
      <path
         id="path1"
         style="fill:#d8d8d8;stroke-width:19.8937;stroke-miterlimit:3.5"
         transform="translate(-0.04952,-0.56443)"
         d="m 296.59961,-1.9863281 c -25.73679,-1.42e-5 -46.91211,21.1782641 -46.91211,46.9140621 0,13.671848 6.06543,25.941643 15.45508,34.496094 l -18.34571,88.308592 -14.23242,-34.52344 -0.71093,-1.72461 c -0.0919,-0.22256 -0.18959,-0.44269 -0.29297,-0.66015 -0.072,-0.15155 -0.15874,-0.33147 -0.25977,-0.54102 l 0.16992,0.36328 C 225.30967,116.86038 216.26093,104.96967 205.33203,95.4375 186.25617,73.487536 158.34969,60.265956 128.33984,60.255859 h -0.004 c -8.68101,-4.8e-5 -17.0572,1.215984 -25.06836,3.271485 l -6.425783,-11.685547 -3.796875,-6.91211 c -1.772534,-2.878747 -4.537717,-5.00891 -7.773438,-5.988281 v 0 L 82.861228,34.738281 C 79.103184,28.268551 70.882746,25.958405 64.304687,29.523437 l -13.826171,7.603516 c -6.69374,3.681876 -9.136637,12.09212 -5.457032,18.787109 l 3.800782,6.914063 12.425781,22.601562 C 39.801826,104.16175 26.230299,131.74438 26.230469,162.36133 c -1.8e-5,0.013 -1.8e-5,0.0261 0,0.0391 0.05513,19.24236 5.574477,38.05971 15.859375,54.30664 0.169908,0.32072 0.338524,0.63582 0.490234,0.91602 0.260133,0.4795 0.548396,0.9432 0.863281,1.38867 l 0.632813,0.89844 159.095698,225.70703 c 0.20763,0.14775 0.4193,0.28973 0.63477,0.42578 3.6191,4.91458 7.81112,9.09442 12.25781,12.73242 13.41106,16.42497 33.45638,26.25189 54.86719,26.35547 0.0221,5e-5 0.0443,5e-5 0.0664,0 3.26177,6e-5 6.45628,-0.29234 9.60547,-0.7207 l 18.55664,33.74804 3.79687,6.91211 c 1.77206,2.87837 4.53649,5.00849 7.77149,5.98828 l 2.18164,3.96485 c 3.68256,6.69302 12.09263,9.135 18.78711,5.45508 l 13.82617,-7.60352 c 6.6933,-3.68115 9.13695,-12.09011 5.45898,-18.78516 l -3.79883,-6.91406 -0.002,-0.004 -24.45312,-44.47656 c 12.12884,-12.79615 19.70069,-30.02866 19.70117,-48.99609 v -0.002 -0.006 -0.002 -0.006 -0.002 -0.006 c -0.0144,-8.31366 -1.48028,-16.56005 -4.33008,-24.36719 -0.0103,-0.0267 -0.0207,-0.0534 -0.0312,-0.0801 -0.24088,-0.64729 -0.49828,-1.32038 -0.78125,-2.01563 -0.008,-0.0202 -0.0169,-0.0404 -0.0254,-0.0606 l -0.99414,-2.4082 -30.47461,-73.91992 h 24.26953 39.41797 c 1.44747,-0.0571 2.87699,-0.34116 4.23633,-0.8418 0.89371,0.37718 1.82461,0.65934 2.77734,0.8418 H 404.625 c 1.37952,-0.0644 2.74162,-0.33498 4.04102,-0.80274 0.85314,0.35529 1.73972,0.62422 2.64648,0.80274 h 28.13477 c 1.37952,-0.0644 2.74162,-0.33498 4.04101,-0.80274 0.85377,0.35542 1.74102,0.62434 2.64844,0.80274 h 28.13281 c 3.66946,-1.5e-4 7.18858,-1.45796 9.7832,-4.05274 L 494,296.82227 c 5.40031,-5.40275 5.40031,-14.15975 0,-19.5625 l -9.94531,-9.94727 -0.002,-0.002 -9.94726,-9.94532 c -2.59447,-2.59358 -6.11275,-4.05063 -9.78125,-4.05078 h -28.13477 c -0.90676,0.17852 -1.79334,0.44745 -2.64648,0.80274 -1.29815,-0.46737 -2.65891,-0.73795 -4.03711,-0.80274 h -28.13867 c -0.90676,0.17852 -1.79335,0.44745 -2.64649,0.80274 -1.29877,-0.46756 -2.6602,-0.73814 -4.03906,-0.80274 h -28.13281 c -0.95207,0.1826 -1.88231,0.46475 -2.77539,0.8418 -1.35934,-0.50064 -2.78886,-0.7847 -4.23633,-0.8418 H 320.11523 289.60937 L 321.64258,99.123047 c 18.44166,-6.353171 31.8125,-23.797166 31.8125,-44.251953 0,-15.424961 -7.68756,-29.092498 -19.23242,-37.619141 C 325.69626,5.7044475 312.02714,-1.9863281 296.59961,-1.9863281 Z M 381.60937,270.81836 h 1.16211 l 0.54493,0.54687 v 5.72852 c -0.0623,-2.19771 -0.64751,-4.34893 -1.70704,-6.27539 z"
         sodipodi:nodetypes="ssccccscccsscccccccccccsccccccccsccccccccccccscccccsccccccccccccccccccccccccccccccccccccscsccccc" />
      <g
         id="path2-5"
         style="fill:#52463d;fill-opacity:1"
         transform="matrix(1.2852891,0,0,1.2852891,-656.53739,-70.877798)">
        <path
           style="fill:#52463d;fill-opacity:1;stroke-linecap:square;stroke-miterlimit:3.5"
           d="m 571.30583,103.18453 194.7714,354.26346"
           id="path27" />
        <path
           style="fill:#52463d;fill-opacity:1;stroke-linecap:square;stroke-miterlimit:3.5"
           d="m 573.72852,94.847656 -10.75977,5.914064 2.95703,5.38086 194.77149,354.26367 2.95898,5.37891 10.75781,-5.91602 -2.95703,-5.37891 -194.77148,-354.26367 z"
           id="path28" />
      </g>
      <path
         d="m 138.23142,83.471348 c -48.750709,-2.7e-4 -88.271016,39.520042 -88.270746,88.270732 0.04846,16.92744 4.963138,33.48397 14.158263,47.69628 0.171998,0.32743 0.346052,0.65378 0.522149,0.97902 l 0.637619,0.90122 159.097195,225.7088 0.20082,-0.10796 c 10.77515,14.87812 28.0009,23.72412 46.37083,23.81298 31.81061,6e-4 57.59872,-25.7864 57.59952,-57.59701 -0.0116,-6.70273 -1.19353,-13.35197 -3.49187,-19.64836 -0.20265,-0.54455 -0.41356,-1.086 -0.6326,-1.62418 l -0.99409,-2.40991 -103.70425,-251.5351 -0.71042,-1.72458 c -0.074,-0.15587 -0.14849,-0.31151 -0.22342,-0.46692 -14.20165,-31.77803 -45.75198,-52.243328 -80.559,-52.255037 z"
         style="fill:#52463d;fill-opacity:1;stroke:none;stroke-width:30.6901;stroke-linecap:round;stroke-miterlimit:3.5"
         id="path6-6" />
      <path
         d="m 446.08575,276.5308 0.57738,0.57738 9.37106,9.37105 -9.94593,9.94593 h 28.13076 l 9.94845,-9.94843 -9.94593,-9.94593 z"
         style="fill:#52463d;fill-opacity:1;stroke-width:19.8937;stroke-miterlimit:3.5"
         id="path18-7" />
      <path
         d="m 411.26496,276.5308 9.94593,9.94593 -9.94844,9.94843 h 28.13579 l 9.94843,-9.94843 -9.94592,-9.94593 z"
         style="fill:#52463d;fill-opacity:1;stroke-width:19.8937;stroke-miterlimit:3.5"
         id="path17-0" />
      <path
         d="m 404.57745,276.5308 h -28.13077 l 9.94593,9.94593 -9.94843,9.94843 h 28.13076 l 9.94843,-9.94843 z"
         style="fill:#52463d;fill-opacity:1;stroke-width:19.8937;stroke-miterlimit:3.5"
         id="path16-9" />
      <g
         id="path19-3"
         style="fill:#52463d;fill-opacity:1"
         transform="matrix(1.2852891,0,0,1.2852891,-656.53739,-70.877798)">
        <path
           d="m 749.27344,71.664062 c -14.12121,5e-6 -25.73438,11.61317 -25.73438,25.734375 0,9.570093 5.34224,17.974123 13.17578,22.406253 l -26.50586,127.58984 c -0.13147,0.38771 -2.10641,6.15983 -6.09765,12.05664 -4.12659,6.09681 -9.41152,10.84571 -15.7168,10.8457 h -1.25976 -0.16797 -0.0156 -0.002 c -10e-4,0 0.002,3.86928 0.002,7.73829 -2.2e-4,3.86999 -0.003,7.74023 -0.002,7.74023 h 0.002 0.0156 0.16797 1.25976 1.71484 16.94336 60.51758 30.66992 l 7.74024,-7.74023 -7.74024,-7.73829 h -30.66992 -52.34375 c 0.54215,-0.72703 1.2201,-1.45627 1.70313,-2.16992 5.51669,-8.15058 8.0957,-16.18359 8.0957,-16.18359 l 0.13281,-0.4082 L 751.85937,123 c 12.92507,-1.31404 23.14844,-12.35304 23.14844,-25.601563 0,-14.121205 -11.61317,-25.73437 -25.73437,-25.734375 z m 0,15.478516 c 5.75627,10e-7 10.25586,4.499585 10.25586,10.255859 0,3.393053 -1.58815,6.319633 -4.05078,8.175783 -1.7152,1.29279 -3.84186,2.08203 -6.20508,2.08203 -3.91662,0 -7.21125,-2.11058 -8.94336,-5.25586 -0.81359,-1.47736 -1.31446,-3.162289 -1.31446,-5.001953 0,-5.756274 4.50154,-10.255858 10.25782,-10.255859 z"
           style="fill:#52463d;fill-opacity:1;stroke-miterlimit:3.5"
           id="path31" />
      </g>
    </g>
    <g
       inkscape:groupmode="layer"
       id="layer3"
       inkscape:label="Pierwszy plan">
      <g
         id="path2"
         transform="matrix(1.2852891,0,0,1.2852891,-74.785852,-77.057134)">
        <path
           style="fill:#ffffff;stroke-linecap:square;stroke-miterlimit:3.5"
           d="m 113.4043,92.355469 -10.75782,5.916015 2.95704,5.378906 194.77148,354.26367 2.95703,5.37891 10.75977,-5.91406 -2.95703,-5.38086 L 116.36328,97.736328 Z"
           id="path26" />
        <g
           id="g24">
          <path
             id="path25"
             style="fill:context-stroke;stroke-width:0.5"
             d="m 306.19251,454.71571 0.14092,0.25632 c 0.17946,0.32642 0.53148,0.344 0.779,0.37908 l -1.75258,0.96356 c 0.10299,-0.2278 0.27675,-0.53445 0.0973,-0.86086 l -0.14092,-0.25632 0.41406,-0.2847 z"
             sodipodi:nodetypes="sssssscsss" />
          <path
             id="path24"
             style="fill:context-stroke;stroke-width:0.5"
             d="m 110.54481,100.93403 -0.14092,-0.25632 c -0.17946,-0.32642 -0.53148,-0.344 -0.779,-0.37908 l 1.75258,-0.963562 c -0.10299,0.2278 -0.27675,0.534448 -0.0973,0.860862 l 0.14092,0.25632 -0.41406,0.2847 z"
             sodipodi:nodetypes="sssssscsss" />
        </g>
      </g>
      <path
         d="m 128.33501,74.089852 c -48.750706,-2.7e-4 -88.271017,39.520038 -88.270745,88.270738 0.04846,16.92743 4.963133,33.48396 14.158266,47.69628 0.171997,0.32742 0.346051,0.65377 0.522148,0.97901 l 0.637619,0.90122 159.097192,225.7088 0.20083,-0.10796 c 10.77514,14.87812 28.00089,23.72412 46.37082,23.81299 31.81061,5.9e-4 57.59873,-25.78641 57.59953,-57.59702 -0.0116,-6.70273 -1.19354,-13.35197 -3.49188,-19.64835 -0.20265,-0.54455 -0.41355,-1.08601 -0.63259,-1.62418 l -0.9941,-2.40992 -103.70425,-251.53509 -0.71042,-1.72459 c -0.074,-0.15587 -0.14849,-0.3115 -0.22342,-0.46692 -14.20165,-31.778027 -45.75197,-52.243325 -80.559,-52.255034 z"
         style="fill:url(#linearGradient8);stroke:none;stroke-width:30.6901;stroke-linecap:round;stroke-miterlimit:3.5"
         id="path6" />
      <g
         id="path8"
         transform="matrix(1.2852891,0,0,1.2852891,-74.785852,-77.057134)">
        <g
           id="g10">
          <path
             style="fill:context-stroke;fill-rule:evenodd;stroke-width:0.6"
             d="m 402.00296,275.54427 -1.8,1.8 h -1.2 l 1.8,-1.8 -1.8,-1.8 h 1.2 z"
             id="path10" />
        </g>
      </g>
      <path
         d="m 436.18935,267.1493 0.57737,0.57738 9.37106,9.37106 -9.94593,9.94592 h 28.13077 l 9.94844,-9.94843 -9.94593,-9.94593 z"
         style="fill:#ffffff;stroke-width:19.8937;stroke-miterlimit:3.5"
         id="path18" />
      <path
         d="m 401.36855,267.1493 9.94593,9.94593 -9.94843,9.94843 h 28.13578 l 9.94844,-9.94843 -9.94593,-9.94593 z"
         style="fill:#ffffff;stroke-width:19.8937;stroke-miterlimit:3.5"
         id="path17" />
      <path
         d="m 394.68104,267.1493 h -28.13076 l 9.94592,9.94593 -9.94843,9.94843 h 28.13076 l 9.94844,-9.94843 z"
         style="fill:#ffffff;stroke-width:19.8937;stroke-miterlimit:3.5"
         id="path16" />
      <path
         d="m 296.59992,11.84872 c -18.14983,-6e-6 -33.07862,14.928783 -33.07862,33.078621 0,12.299698 6.86644,23.101717 16.93469,28.798504 L 246.39081,237.71316 c -0.16897,0.49832 -2.70735,7.91717 -7.83725,15.49627 -5.30386,7.83616 -12.09651,13.93987 -20.20062,13.93987 h -1.61917 -0.21589 -0.02 -0.003 c -0.001,0 0.003,4.97313 0.003,9.94593 -2.8e-4,4.97406 -0.004,9.94843 -0.003,9.94843 h 0.003 0.02 0.21589 1.61917 2.20407 21.77711 77.78258 39.41972 l 9.94592,-9.94843 -9.94592,-9.94593 H 320.1167 252.83986 c 0.69681,-0.93444 1.56816,-1.87172 2.189,-2.78897 7.09054,-10.47585 10.40531,-20.8006 10.40531,-20.8006 l 0.17071,-0.52466 34.31622,-165.202315 c 16.61362,-1.687777 29.75494,-15.876379 29.75494,-32.905414 0,-18.149832 -14.92628,-33.078617 -33.07612,-33.078621 z m 0,19.894367 c 7.39849,2e-6 13.18175,5.785777 13.18175,13.184254 0,4.361639 -2.0405,8.125838 -5.20642,10.510756 -2.20431,1.660516 -4.93848,2.670985 -7.97533,2.670985 -5.03397,0 -9.26854,-2.710945 -11.4948,-6.752786 -1.04568,-1.898487 -1.68945,-4.064454 -1.68945,-6.428955 0,-7.39848 5.78577,-13.184256 13.18425,-13.184254 z"
         style="fill:#ffffff;stroke-width:1.28529;stroke-miterlimit:3.5"
         id="path22" />
    </g>
  </g>
</svg>
